# xmcd CD database file
# Copyright (C) 1993-1998 Ti Kan
# 
# Track frame offsets:
#     150
#     10497
#     23277
#     44380
#     61427
#     76072
#     90000
#     103462
#     122797
#     138772
#     155030
#     169170
# 
# Disc length: 2476 seconds
# 
# Revision: 1
# Processed by: cddbd v1.4b41PL1 Copyright (c) Steve Scherf et al.
# Submitted via: DiscPlay 4.0.4
# 
DISCID=8d09aa0c
DTITLE=Kris Kristofferson - The Best of Kris Kristofferson Vol. 2
DYEAR=1900
DGENRE=
TTITLE0=Help Me Make It Through the Night
TTITLE1=Once More with Feeling
TTITLE2=To Beat the Devil
TTITLE3=Loving Her Was Easier (Than Anything I'll Ever Do Again)
TTITLE4=The Taker
TTITLE5=Jody and the Kid
TTITLE6=Duvalier's Dream
TTITLE7=Me and Bobby McGee
TTITLE8=Who's to Bless and Who's to Blame
TTITLE9=I Got a Life of My Own
TTITLE10=Stranger
TTITLE11=Rain
EXTD=
EXTT0=
EXTT1=
EXTT2=
EXTT3=
EXTT4=
EXTT5=
EXTT6=
EXTT7=
EXTT8=
EXTT9=
EXTT10=
EXTT11=
PLAYORDER=
